<svg xmlns="http://www.w3.org/2000/svg" viewBox="0 0 233.62 233.62"><defs><style>.cls-1{fill:#1f2733;}.cls-2{fill:#f0f0f0;}</style></defs><title>circle</title><g id="Layer_2" data-name="Layer 2"><g id="Layer_1-2" data-name="Layer 1"><circle class="cls-1" cx="116.7" cy="116.81" r="52.68"/><path class="cls-1" d="M116.81,17.6A99.21,99.21,0,1,0,216,116.81,99.2,99.2,0,0,0,116.81,17.6Zm-.11,170.89a71.68,71.68,0,1,1,71.68-71.68A71.68,71.68,0,0,1,116.7,188.49Z"/><path class="cls-2" d="M116.81,0A116.81,116.81,0,1,0,233.62,116.81,116.81,116.81,0,0,0,116.81,0Zm0,216A99.21,99.21,0,1,1,216,116.81,99.21,99.21,0,0,1,116.81,216Z"/></g></g></svg>