<svg xmlns="http://www.w3.org/2000/svg" viewBox="0 0 233.62 233.62"><defs><style>.cls-1{fill:#1f2733;}.cls-2{fill:#f0f0f0;}</style></defs><title>cross</title><g id="Layer_2" data-name="Layer 2"><g id="Layer_1-2" data-name="Layer 1"><path class="cls-1" d="M116.81,17.6A99.21,99.21,0,1,0,216,116.81,99.2,99.2,0,0,0,116.81,17.6ZM180,166.33,166.33,180l-49.52-49.51L67.29,180l-13.71-13.7,49.52-49.52L53.58,67.29,67.29,53.58l49.52,49.52,49.52-49.52L180,67.29l-49.51,49.52Z"/><path class="cls-2" d="M116.81,0A116.81,116.81,0,1,0,233.62,116.81,116.81,116.81,0,0,0,116.81,0Zm0,216A99.21,99.21,0,1,1,216,116.81,99.21,99.21,0,0,1,116.81,216Z"/></g></g></svg>