<svg xmlns="http://www.w3.org/2000/svg" viewBox="0 0 233.62 233.62"><defs><style>.cls-1{fill:#1f2733;}.cls-2{fill:#f0f0f0;}</style></defs><title>triangle</title><g id="Layer_2" data-name="Layer 2"><g id="Layer_1-2" data-name="Layer 1"><polygon class="cls-1" points="117.94 66.96 68.64 152.35 167.25 152.35 117.94 66.96"/><path class="cls-1" d="M116.81,17.6A99.21,99.21,0,1,0,216,116.81,99.2,99.2,0,0,0,116.81,17.6ZM42.66,167.36,118,37l75.28,130.4Z"/><path class="cls-2" d="M116.81,0A116.81,116.81,0,1,0,233.62,116.81,116.81,116.81,0,0,0,116.81,0Zm0,216A99.21,99.21,0,1,1,216,116.81,99.21,99.21,0,0,1,116.81,216Z"/></g></g></svg>